<svg width="256" height="256" viewBox="0 0 256 256" fill="none" xmlns="http://www.w3.org/2000/svg">
  <path d="M35 78C54 85 69 94 82 106C98 92 116 85 139 85C171 85 196 101 204 126C213 155 194 181 160 184L196 229C202 237 214 238 222 231C222 247 211 257 195 257C181 257 171 250 161 237L126 190H116L106 232H142L138 250H42L46 232H70L98 106C77 105 55 96 35 78Z" fill="#EFBF4C"/>
  <path d="M62 66C58 43 66 22 84 4C84 25 92 39 107 47C115 24 134 11 164 8C154 27 153 43 162 57C178 47 195 39 214 34C203 50 199 68 203 88C164 68 117 62 62 66Z" fill="#EFBF4C"/>
  <path d="M115 166H137C154 166 168 158 172 143C178 121 163 104 136 104H129L115 166ZM142 120C154 120 160 128 156 141C153 151 145 157 133 157H128L137 120H142Z" fill="#000"/>
  <path d="M48 88C53 101 64 112 81 119L77 137C53 127 37 111 29 89L48 88Z" fill="#EFBF4C"/>
  <path d="M203 195C216 194 226 187 233 175C238 191 232 205 215 215L203 195Z" fill="#EFBF4C"/>
</svg>
